<?xml version="1.0" encoding="UTF-8" standalone="no"?>
<!-- Created with Inkscape (http://www.inkscape.org/) -->

<svg
   xmlns:dc="http://purl.org/dc/elements/1.1/"
   xmlns:cc="http://creativecommons.org/ns#"
   xmlns:rdf="http://www.w3.org/1999/02/22-rdf-syntax-ns#"
   xmlns:svg="http://www.w3.org/2000/svg"
   xmlns="http://www.w3.org/2000/svg"
   xmlns:xlink="http://www.w3.org/1999/xlink"
   xmlns:sodipodi="http://sodipodi.sourceforge.net/DTD/sodipodi-0.dtd"
   xmlns:inkscape="http://www.inkscape.org/namespaces/inkscape"
   width="512"
   height="512"
   viewBox="0 0 512.00001 512.00001"
   id="svg2"
   version="1.1"
   inkscape:version="0.91 r13725"
   sodipodi:docname="viewer-app.svg">
  <sodipodi:namedview
     id="base"
     pagecolor="#ffffff"
     bordercolor="#666666"
     borderopacity="1.0"
     inkscape:pageopacity="0"
     inkscape:pageshadow="2"
     inkscape:zoom="1.0111198"
     inkscape:cx="259.10868"
     inkscape:cy="247.3902"
     inkscape:document-units="px"
     inkscape:current-layer="layer1"
     showgrid="true"
     units="px"
     inkscape:window-width="1397"
     inkscape:window-height="855"
     inkscape:window-x="43"
     inkscape:window-y="1"
     inkscape:window-maximized="1">
    <inkscape:grid
       spacingy="16"
       spacingx="16"
       units="px"
       id="grid7614"
       type="xygrid" />
  </sodipodi:namedview>
  <defs
     id="defs4">
    <linearGradient
       id="linearGradient8336"
       inkscape:collect="always">
      <stop
         id="stop8338"
         offset="0"
         style="stop-color:#3c3c3c;stop-opacity:1" />
      <stop
         id="stop8340"
         offset="1"
         style="stop-color:#4d4d4d;stop-opacity:1" />
    </linearGradient>
    <linearGradient
       inkscape:collect="always"
       id="linearGradient8330">
      <stop
         style="stop-color:#e5e5e5;stop-opacity:1"
         offset="0"
         id="stop8332" />
      <stop
         style="stop-color:#fafafa;stop-opacity:1"
         offset="1"
         id="stop8334" />
    </linearGradient>
    <path
       id="path0_fill"
       d="M 5.89353 2.844C 5.91889 3.43165 5.77085 4.01367 5.46815 4.51645C 5.16545 5.01922 4.72168 5.42015 4.19299 5.66851C 3.6643 5.91688 3.07444 6.00151 2.49805 5.91171C 1.92166 5.8219 1.38463 5.5617 0.954898 5.16401C 0.52517 4.76633 0.222056 4.24903 0.0839037 3.67757C -0.0542483 3.10611 -0.02123 2.50617 0.178781 1.95364C 0.378793 1.4011 0.736809 0.920817 1.20754 0.573538C 1.67826 0.226259 2.24055 0.0275919 2.82326 0.00267229C 3.60389 -0.0307115 4.36573 0.249789 4.94142 0.782551C 5.51711 1.31531 5.85956 2.05676 5.89353 2.844Z" />
    <path
       id="path1_fill"
       d="M 18.2646 7.13411C 10.4145 7.13411 3.55872 4.2576 0 0C 1.32539 3.8204 3.79556 7.13081 7.0686 9.47303C 10.3417 11.8152 14.2557 13.0734 18.269 13.0734C 22.2823 13.0734 26.1963 11.8152 29.4694 9.47303C 32.7424 7.13081 35.2126 3.8204 36.538 0C 32.9705 4.2576 26.1148 7.13411 18.2646 7.13411Z" />
    <path
       id="path2_fill"
       d="M 18.2733 5.93931C 26.1235 5.93931 32.9793 8.81583 36.538 13.0734C 35.2126 9.25303 32.7424 5.94262 29.4694 3.6004C 26.1963 1.25818 22.2823 0 18.269 0C 14.2557 0 10.3417 1.25818 7.0686 3.6004C 3.79556 5.94262 1.32539 9.25303 0 13.0734C 3.56745 8.82463 10.4232 5.93931 18.2733 5.93931Z" />
    <path
       id="path3_fill"
       d="M 7.42789 3.58338C 7.46008 4.3243 7.27355 5.05819 6.89193 5.69213C 6.51031 6.32607 5.95075 6.83156 5.28411 7.1446C 4.61747 7.45763 3.87371 7.56414 3.14702 7.45063C 2.42032 7.33712 1.74336 7.0087 1.20184 6.50695C 0.660328 6.0052 0.27861 5.35268 0.105017 4.63202C -0.0685757 3.91135 -0.0262361 3.15494 0.226675 2.45856C 0.479587 1.76217 0.931697 1.15713 1.52576 0.720033C 2.11983 0.282935 2.82914 0.0334395 3.56389 0.00313344C 4.54667 -0.0374033 5.50529 0.316706 6.22961 0.987835C 6.95393 1.65896 7.38484 2.59235 7.42789 3.58338L 7.42789 3.58338Z" />
    <path
       id="path4_fill"
       d="M 2.27471 4.39629C 1.84363 4.41508 1.41671 4.30445 1.04799 4.07843C 0.679268 3.8524 0.385328 3.52114 0.203371 3.12656C 0.0214136 2.73198 -0.0403798 2.29183 0.0258116 1.86181C 0.0920031 1.4318 0.283204 1.03126 0.575213 0.710883C 0.867222 0.39051 1.24691 0.164708 1.66622 0.0620592C 2.08553 -0.0405897 2.52561 -0.0154714 2.93076 0.134235C 3.33591 0.283941 3.68792 0.551505 3.94222 0.90306C 4.19652 1.25462 4.34169 1.67436 4.35935 2.10916C 4.38299 2.69107 4.17678 3.25869 3.78597 3.68746C 3.39516 4.11624 2.85166 4.37116 2.27471 4.39629L 2.27471 4.39629Z" />
    <linearGradient
       y2="596.4234"
       x2="261.03061"
       y1="994.34076"
       x1="261.03061"
       gradientTransform="matrix(1.2900728,0,0,1.1579547,-59.369402,-699.11457)"
       gradientUnits="userSpaceOnUse"
       id="linearGradient8062"
       xlink:href="#linearGradient8330"
       inkscape:collect="always" />
    <filter
       id="filter8318"
       inkscape:label="Drop Shadow"
       style="color-interpolation-filters:sRGB;">
      <feFlood
         id="feFlood8320"
         result="flood"
         flood-color="rgb(0,0,0)"
         flood-opacity="0.498039" />
      <feComposite
         id="feComposite8322"
         result="composite1"
         operator="in"
         in2="SourceGraphic"
         in="flood" />
      <feGaussianBlur
         id="feGaussianBlur8324"
         result="blur"
         stdDeviation="5"
         in="composite1" />
      <feOffset
         id="feOffset8326"
         result="offset"
         dy="3"
         dx="3" />
      <feComposite
         id="feComposite8328"
         result="composite2"
         operator="over"
         in2="offset"
         in="SourceGraphic" />
    </filter>
    <linearGradient
       gradientUnits="userSpaceOnUse"
       y2="627.91553"
       x2="224"
       y1="974.93121"
       x1="224"
       id="linearGradient8342"
       xlink:href="#linearGradient8336"
       inkscape:collect="always"
       gradientTransform="matrix(1.2811565,0,0,1.1499515,-58.351223,-693.87597)" />
    <filter
       style="color-interpolation-filters:sRGB;"
       inkscape:label="Drop Shadow"
       id="filter8572">
      <feFlood
         flood-opacity="0.498039"
         flood-color="rgb(0,0,0)"
         result="flood"
         id="feFlood8574" />
      <feComposite
         in="flood"
         in2="SourceGraphic"
         operator="in"
         result="composite1"
         id="feComposite8576" />
      <feGaussianBlur
         in="composite1"
         stdDeviation="5"
         result="blur"
         id="feGaussianBlur8578" />
      <feOffset
         dx="3"
         dy="3"
         result="offset"
         id="feOffset8580" />
      <feComposite
         in="SourceGraphic"
         in2="offset"
         operator="over"
         result="composite2"
         id="feComposite8582" />
    </filter>
    <filter
       style="color-interpolation-filters:sRGB;"
       inkscape:label="Drop Shadow"
       id="filter5142">
      <feFlood
         flood-opacity="0.498039"
         flood-color="rgb(0,0,0)"
         result="flood"
         id="feFlood5144" />
      <feComposite
         in="flood"
         in2="SourceGraphic"
         operator="in"
         result="composite1"
         id="feComposite5146" />
      <feGaussianBlur
         in="composite1"
         stdDeviation="5"
         result="blur"
         id="feGaussianBlur5148" />
      <feOffset
         dx="3"
         dy="3"
         result="offset"
         id="feOffset5150" />
      <feComposite
         in="SourceGraphic"
         in2="offset"
         operator="over"
         result="composite2"
         id="feComposite5152" />
    </filter>
    <filter
       style="color-interpolation-filters:sRGB;"
       inkscape:label="Drop Shadow"
       id="filter4296">
      <feFlood
         flood-opacity="0.498039"
         flood-color="rgb(0,0,0)"
         result="flood"
         id="feFlood4298" />
      <feComposite
         in="flood"
         in2="SourceGraphic"
         operator="in"
         result="composite1"
         id="feComposite4300" />
      <feGaussianBlur
         in="composite1"
         stdDeviation="4"
         result="blur"
         id="feGaussianBlur4302" />
      <feOffset
         dx="2"
         dy="4"
         result="offset"
         id="feOffset4304" />
      <feComposite
         in="SourceGraphic"
         in2="offset"
         operator="over"
         result="composite2"
         id="feComposite4306" />
    </filter>
    <linearGradient
       inkscape:collect="always"
       xlink:href="#linearGradient8330"
       id="linearGradient4215"
       gradientUnits="userSpaceOnUse"
       gradientTransform="matrix(1.2006463,0,0,1.2,-51.212416,-724.17007)"
       x1="261.03061"
       y1="994.34076"
       x2="261.03061"
       y2="596.4234" />
    <linearGradient
       inkscape:collect="always"
       xlink:href="#linearGradient8336"
       id="linearGradient4217"
       gradientUnits="userSpaceOnUse"
       gradientTransform="matrix(1.192348,0,0,1.1917062,-50.264816,-718.74126)"
       x1="224"
       y1="974.93121"
       x2="224"
       y2="627.91553" />
    <linearGradient
       inkscape:collect="always"
       xlink:href="#linearGradient8330"
       id="linearGradient4260"
       gradientUnits="userSpaceOnUse"
       gradientTransform="matrix(1.1894655,-0.18839284,0.16909927,1.0676507,-180.55482,-8.7190107)"
       x1="261.03061"
       y1="994.34076"
       x2="261.03061"
       y2="596.4234" />
    <linearGradient
       inkscape:collect="always"
       xlink:href="#linearGradient8336"
       id="linearGradient4262"
       gradientUnits="userSpaceOnUse"
       gradientTransform="matrix(1.1812445,-0.18709077,0.16793055,1.0602717,-178.85104,-4.0376343)"
       x1="224"
       y1="974.93121"
       x2="224"
       y2="627.91553" />
    <linearGradient
       inkscape:collect="always"
       xlink:href="#linearGradient8330"
       id="linearGradient4280"
       gradientUnits="userSpaceOnUse"
       gradientTransform="matrix(1.2900728,0,0,1.1579547,-59.369402,-699.11457)"
       x1="261.03061"
       y1="994.34076"
       x2="261.03061"
       y2="596.4234" />
    <linearGradient
       inkscape:collect="always"
       xlink:href="#linearGradient8336"
       id="linearGradient4282"
       gradientUnits="userSpaceOnUse"
       gradientTransform="matrix(1.2811565,0,0,1.1499515,-58.351223,-693.87597)"
       x1="224"
       y1="974.93121"
       x2="224"
       y2="627.91553" />
    <filter
       style="color-interpolation-filters:sRGB;"
       inkscape:label="Drop Shadow"
       id="filter4327">
      <feFlood
         flood-opacity="0.498039"
         flood-color="rgb(0,0,0)"
         result="flood"
         id="feFlood4329" />
      <feComposite
         in="flood"
         in2="SourceGraphic"
         operator="in"
         result="composite1"
         id="feComposite4331" />
      <feGaussianBlur
         in="composite1"
         stdDeviation="4"
         result="blur"
         id="feGaussianBlur4333" />
      <feOffset
         dx="3"
         dy="3"
         result="offset"
         id="feOffset4335" />
      <feComposite
         in="SourceGraphic"
         in2="offset"
         operator="over"
         result="composite2"
         id="feComposite4337" />
    </filter>
  </defs>
  <metadata
     id="metadata7">
    <rdf:RDF>
      <cc:Work
         rdf:about="">
        <dc:format>image/svg+xml</dc:format>
        <dc:type
           rdf:resource="http://purl.org/dc/dcmitype/StillImage" />
        <dc:title />
      </cc:Work>
    </rdf:RDF>
  </metadata>
  <g
     transform="translate(0,-540.36216)"
     id="layer1"
     inkscape:groupmode="layer"
     inkscape:label="Ebene 1">
    <g
       id="g4235">
      <path
         id="path8046"
         d="m 87.663708,-9.0693 363.922242,0 c 16.2654,0 29.35992,11.7534953 29.35992,26.353128 l 0,409.236082 c 0,14.59963 -13.09452,26.35313 -29.35992,26.35313 l -363.922242,0 c -16.265394,0 -29.359918,-11.7535 -29.359918,-26.35313 l 0,-409.236082 C 58.30379,2.6841953 71.398314,-9.0693 87.663708,-9.0693 Z"
         style="opacity:1;fill:url(#linearGradient8062);fill-opacity:1;stroke:none;stroke-width:1.25;stroke-linecap:round;stroke-linejoin:round;stroke-miterlimit:4;stroke-dasharray:2.5, 1.25;stroke-dashoffset:0;stroke-opacity:1"
         inkscape:connector-curvature="0" />
      <path
         id="path8048"
         d="m 107.93584,16.663025 323.37797,0 c 14.45328,0 26.08896,10.444045 26.08896,23.417156 l 0,363.643389 c 0,12.97311 -11.63568,23.41714 -26.08896,23.41714 l -323.37797,0 c -14.453284,0 -26.088954,-10.44403 -26.088954,-23.41714 l 0,-363.643389 c 0,-12.973111 11.63567,-23.417156 26.088954,-23.417156 z"
         style="opacity:1;fill:url(#linearGradient8342);fill-opacity:1;stroke:none;stroke-width:1.25;stroke-linecap:round;stroke-linejoin:round;stroke-miterlimit:4;stroke-dasharray:2.5, 1.25;stroke-dashoffset:0;stroke-opacity:1"
         inkscape:connector-curvature="0" />
      <use
         id="use8050"
         style="mix-blend-mode:normal;fill:#ffffff"
         transform="matrix(7.1751005,0,0,7.1712381,355.58972,42.639621)"
         xlink:href="#path0_fill"
         x="0"
         y="0"
         width="100%"
         height="100%" />
      <use
         id="use8052"
         style="mix-blend-mode:normal;fill:#f37726"
         transform="matrix(7.1751005,0,0,7.1712381,143.49375,262.58149)"
         xlink:href="#path1_fill"
         x="0"
         y="0"
         width="100%"
         height="100%" />
      <use
         id="use8054"
         style="mix-blend-mode:normal;fill:#f37726"
         transform="matrix(7.1751005,0,0,7.1712381,143.42199,72.543687)"
         xlink:href="#path2_fill"
         x="0"
         y="0"
         width="100%"
         height="100%" />
      <use
         id="use8056"
         style="mix-blend-mode:normal;fill:#ffffff"
         transform="matrix(7.1751005,0,0,7.1712381,143.92426,347.41723)"
         xlink:href="#path3_fill"
         x="0"
         y="0"
         width="100%"
         height="100%" />
      <use
         id="use8058"
         style="mix-blend-mode:normal;fill:#ffffff"
         transform="matrix(7.1751005,0,0,7.1712381,133.5921,76.703002)"
         xlink:href="#path4_fill"
         x="0"
         y="0"
         width="100%"
         height="100%" />
    </g>
    <g
       transform="matrix(0.96496228,0,0,0.96496228,630.4131,-0.31776762)"
       id="g4194">
      <g
         id="g4196"
         transform="matrix(1.1134964,0,0,1,-6.6172686,0)">
        <path
           id="path4198"
           d="m 85.628508,-9.0693 338.695522,0 c 15.1379,0 27.32472,12.180264 27.32472,27.310008 l 0,424.095422 c 0,15.12974 -12.18682,27.31001 -27.32472,27.31001 l -338.695522,0 c -15.137893,0 -27.324718,-12.18027 -27.324718,-27.31001 l 0,-424.095422 C 58.30379,3.110964 70.490615,-9.0693 85.628508,-9.0693 Z"
           style="opacity:1;fill:url(#linearGradient4215);fill-opacity:1;stroke:none;stroke-width:1.25;stroke-linecap:round;stroke-linejoin:round;stroke-miterlimit:4;stroke-dasharray:2.5, 1.25;stroke-dashoffset:0;stroke-opacity:1"
           inkscape:connector-curvature="0" />
        <path
           id="path4200"
           d="m 104.4954,17.597364 300.96173,0 c 13.4514,0 24.2805,10.823268 24.2805,24.267432 l 0,376.847254 c 0,13.44417 -10.8291,24.26742 -24.2805,24.26742 l -300.96173,0 c -13.451401,0 -24.280498,-10.82325 -24.280498,-24.26742 l 0,-376.847254 c 0,-13.444164 10.829097,-24.267432 24.280498,-24.267432 z"
           style="opacity:1;fill:url(#linearGradient4217);fill-opacity:1;stroke:none;stroke-width:1.25;stroke-linecap:round;stroke-linejoin:round;stroke-miterlimit:4;stroke-dasharray:2.5, 1.25;stroke-dashoffset:0;stroke-opacity:1"
           inkscape:connector-curvature="0" />
      </g>
      <g
         id="g4203"
         transform="translate(22.321619,3.7012677e-5)">
        <use
           id="use4205"
           style="mix-blend-mode:normal;fill:#ffffff"
           transform="matrix(7.4356279,0,0,7.4316253,344.06253,44.517132)"
           xlink:href="#path0_fill"
           x="0"
           y="0"
           width="100%"
           height="100%" />
        <use
           id="use4207"
           style="mix-blend-mode:normal;fill:#f37726"
           transform="matrix(7.4356279,0,0,7.4316253,124.26537,272.44508)"
           xlink:href="#path1_fill"
           x="0"
           y="0"
           width="100%"
           height="100%" />
        <use
           id="use4209"
           style="mix-blend-mode:normal;fill:#f37726"
           transform="matrix(7.4356279,0,0,7.4316253,124.19101,75.507012)"
           xlink:href="#path2_fill"
           x="0"
           y="0"
           width="100%"
           height="100%" />
        <use
           id="use4211"
           style="mix-blend-mode:normal;fill:#ffffff"
           transform="matrix(7.4356279,0,0,7.4316253,124.71151,360.3612)"
           xlink:href="#path3_fill"
           x="0"
           y="0"
           width="100%"
           height="100%" />
        <use
           id="use4213"
           style="mix-blend-mode:normal;fill:#ffffff"
           transform="matrix(7.4356279,0,0,7.4316253,114.0042,79.817352)"
           xlink:href="#path4_fill"
           x="0"
           y="0"
           width="100%"
           height="100%" />
      </g>
    </g>
    <g
       id="g4349"
       transform="translate(-2,0)">
      <path
         inkscape:connector-curvature="0"
         style="opacity:1;fill:url(#linearGradient4260);fill-opacity:1;stroke:none;stroke-width:1.25;stroke-linecap:round;stroke-linejoin:round;stroke-miterlimit:4;stroke-dasharray:2.5, 1.25;stroke-dashoffset:0;stroke-opacity:1;filter:url(#filter4327)"
         d="m 55.78099,606.04092 335.54149,-53.14456 c 14.99693,-2.37528 28.78666,6.54938 30.91869,20.01045 l 59.76186,377.3215 c 2.13202,13.46107 -8.22492,26.21019 -23.22185,28.58547 l -335.54149,53.14452 c -14.99693,2.3753 -28.786662,-6.5493 -30.918685,-20.0104 L 32.559147,634.62638 C 30.427123,621.16532 40.784065,608.4162 55.78099,606.04092 Z"
         id="path4246" />
      <g
         id="g4339">
        <g
           transform="matrix(0.95308199,-0.15095336,0.15095336,0.95308199,-43.050436,618.73746)"
           id="g4224"
           style="filter:url(#filter4296)">
          <g
             id="g4226"
             transform="matrix(1.1134964,0,0,1,-6.6172686,0)" />
        </g>
        <path
           id="path4248"
           d="M 78.229946,626.80609 376.38904,579.58233 c 13.32613,-2.11065 25.57957,5.81971 27.47407,17.78111 l 53.10383,335.28438 c 1.8945,11.9614 -7.30859,23.29013 -20.63472,25.40078 l -298.1591,47.2238 c -13.32613,2.1106 -25.57956,-5.81974 -27.47406,-17.78113 L 57.59523,652.20688 c -1.894499,-11.96139 7.308583,-23.29014 20.634716,-25.40079 z"
           style="opacity:1;fill:url(#linearGradient4262);fill-opacity:1;stroke:none;stroke-width:1.25;stroke-linecap:round;stroke-linejoin:round;stroke-miterlimit:4;stroke-dasharray:2.5, 1.25;stroke-dashoffset:0;stroke-opacity:1"
           inkscape:connector-curvature="0" />
        <use
           id="use4250"
           style="mix-blend-mode:normal;fill:#ffffff"
           transform="matrix(6.6155449,-1.0477994,1.0472354,6.6119837,310.36379,614.59131)"
           xlink:href="#path0_fill"
           x="0"
           y="0"
           width="100%"
           height="100%" />
        <use
           id="use4252"
           style="mix-blend-mode:normal;fill:#f37726"
           transform="matrix(6.6155449,-1.0477994,1.0472354,6.6119837,146.92699,848.3538)"
           xlink:href="#path1_fill"
           x="0"
           y="0"
           width="100%"
           height="100%" />
        <use
           id="use4254"
           style="mix-blend-mode:normal;fill:#f37726"
           transform="matrix(6.6155449,-1.0477994,1.0472354,6.6119837,119.10909,673.14672)"
           xlink:href="#path2_fill"
           x="0"
           y="0"
           width="100%"
           height="100%" />
        <use
           id="use4256"
           style="mix-blend-mode:normal;fill:#ffffff"
           transform="matrix(6.6155449,-1.0477994,1.0472354,6.6119837,159.71272,926.5107)"
           xlink:href="#path3_fill"
           x="0"
           y="0"
           width="100%"
           height="100%" />
        <use
           id="use4258"
           style="mix-blend-mode:normal;fill:#ffffff"
           transform="matrix(6.6155449,-1.0477994,1.0472354,6.6119837,110.65318,678.41715)"
           xlink:href="#path4_fill"
           x="0"
           y="0"
           width="100%"
           height="100%" />
      </g>
    </g>
    <g
       transform="matrix(0.92201425,-0.14603272,0.14603272,0.92201425,679.19066,627.20471)"
       id="g4264">
      <path
         id="path4266"
         d="m 87.663708,-9.0693 363.922242,0 c 16.2654,0 29.35992,11.7534953 29.35992,26.353128 l 0,409.236082 c 0,14.59963 -13.09452,26.35313 -29.35992,26.35313 l -363.922242,0 c -16.265394,0 -29.359918,-11.7535 -29.359918,-26.35313 l 0,-409.236082 C 58.30379,2.6841953 71.398314,-9.0693 87.663708,-9.0693 Z"
         style="opacity:1;fill:url(#linearGradient4280);fill-opacity:1;stroke:none;stroke-width:1.25;stroke-linecap:round;stroke-linejoin:round;stroke-miterlimit:4;stroke-dasharray:2.5, 1.25;stroke-dashoffset:0;stroke-opacity:1"
         inkscape:connector-curvature="0" />
      <path
         id="path4268"
         d="m 107.93584,16.663025 323.37797,0 c 14.45328,0 26.08896,10.444045 26.08896,23.417156 l 0,363.643389 c 0,12.97311 -11.63568,23.41714 -26.08896,23.41714 l -323.37797,0 c -14.453284,0 -26.088954,-10.44403 -26.088954,-23.41714 l 0,-363.643389 c 0,-12.973111 11.63567,-23.417156 26.088954,-23.417156 z"
         style="opacity:1;fill:url(#linearGradient4282);fill-opacity:1;stroke:none;stroke-width:1.25;stroke-linecap:round;stroke-linejoin:round;stroke-miterlimit:4;stroke-dasharray:2.5, 1.25;stroke-dashoffset:0;stroke-opacity:1"
         inkscape:connector-curvature="0" />
      <use
         id="use4270"
         style="mix-blend-mode:normal;fill:#ffffff"
         transform="matrix(7.1751005,0,0,7.1712381,355.58972,42.639621)"
         xlink:href="#path0_fill"
         x="0"
         y="0"
         width="100%"
         height="100%" />
      <use
         id="use4272"
         style="mix-blend-mode:normal;fill:#f37726"
         transform="matrix(7.1751005,0,0,7.1712381,143.49375,262.58149)"
         xlink:href="#path1_fill"
         x="0"
         y="0"
         width="100%"
         height="100%" />
      <use
         id="use4274"
         style="mix-blend-mode:normal;fill:#f37726"
         transform="matrix(7.1751005,0,0,7.1712381,143.42199,72.543687)"
         xlink:href="#path2_fill"
         x="0"
         y="0"
         width="100%"
         height="100%" />
      <use
         id="use4276"
         style="mix-blend-mode:normal;fill:#ffffff"
         transform="matrix(7.1751005,0,0,7.1712381,143.92426,347.41723)"
         xlink:href="#path3_fill"
         x="0"
         y="0"
         width="100%"
         height="100%" />
      <use
         id="use4278"
         style="mix-blend-mode:normal;fill:#ffffff"
         transform="matrix(7.1751005,0,0,7.1712381,133.5921,76.703002)"
         xlink:href="#path4_fill"
         x="0"
         y="0"
         width="100%"
         height="100%" />
    </g>
  </g>
</svg>
